<svg width="23" height="20" viewBox="0 0 23 20" fill="none" xmlns="http://www.w3.org/2000/svg">
<g id="Icon">
<path id="Vector" d="M7.31322 17.5H22.3125M7.31322 10H22.3125M7.3125 2.5H22.3125" stroke="#757777" stroke-linecap="round" stroke-linejoin="round"/>
<g id="Vector_2">
<path d="M2.15625 18.9062C2.9329 18.9062 3.5625 18.2767 3.5625 17.5C3.5625 16.7233 2.9329 16.0938 2.15625 16.0938C1.3796 16.0938 0.75 16.7233 0.75 17.5C0.75 18.2767 1.3796 18.9062 2.15625 18.9062Z" fill="#5E718D"/>
<path d="M2.15625 11.4062C2.9329 11.4062 3.5625 10.7767 3.5625 10C3.5625 9.22335 2.9329 8.59375 2.15625 8.59375C1.3796 8.59375 0.75 9.22335 0.75 10C0.75 10.7767 1.3796 11.4062 2.15625 11.4062Z" fill="#5E718D"/>
<path d="M2.15625 3.90625C2.9329 3.90625 3.5625 3.27665 3.5625 2.5C3.5625 1.72335 2.9329 1.09375 2.15625 1.09375C1.3796 1.09375 0.75 1.72335 0.75 2.5C0.75 3.27665 1.3796 3.90625 2.15625 3.90625Z" fill="#5E718D"/>
<path d="M2.15625 18.9062C2.9329 18.9062 3.5625 18.2767 3.5625 17.5C3.5625 16.7233 2.9329 16.0938 2.15625 16.0938C1.3796 16.0938 0.75 16.7233 0.75 17.5C0.75 18.2767 1.3796 18.9062 2.15625 18.9062Z" stroke="#757777"/>
<path d="M2.15625 11.4062C2.9329 11.4062 3.5625 10.7767 3.5625 10C3.5625 9.22335 2.9329 8.59375 2.15625 8.59375C1.3796 8.59375 0.75 9.22335 0.75 10C0.75 10.7767 1.3796 11.4062 2.15625 11.4062Z" stroke="#757777"/>
<path d="M2.15625 3.90625C2.9329 3.90625 3.5625 3.27665 3.5625 2.5C3.5625 1.72335 2.9329 1.09375 2.15625 1.09375C1.3796 1.09375 0.75 1.72335 0.75 2.5C0.75 3.27665 1.3796 3.90625 2.15625 3.90625Z" stroke="#757777"/>
</g>
</g>
</svg>
